<svg xmlns="http://www.w3.org/2000/svg" xmlns:xlink="http://www.w3.org/1999/xlink" width="32" height="32" x="0" y="0" enable-background="new 0 0 32 32" version="1.1" viewBox="0 0 32 32" xml:space="preserve"><g id="Layer_1"><title>artist</title></g><g id="Layer_2"><path fill="#FFF" d="M29.508,0.241H2.492c-1.242,0-2.251,1.008-2.251,2.251v27.015c0,1.242,1.009,2.252,2.251,2.252h27.016 c1.242,0,2.251-1.01,2.251-2.252V2.493C31.759,1.25,30.75,0.241,29.508,0.241z M4.744,29.508H2.492v-3.002h2.252V29.508z M4.744,24.255H2.492v-3.753h2.252V24.255z M4.744,18.252H2.492V14.5h2.252V18.252z M4.744,12.248H2.492V8.496h2.252V12.248z M4.744,6.245H2.492V2.493h2.252V6.245z M25.005,29.508H6.995V16.75h18.01V29.508z M25.005,14.5H6.995V2.493h18.01V14.5z M29.508,29.508h-2.252v-3.002h2.252V29.508z M29.508,24.255h-2.252v-3.753h2.252V24.255z M29.508,18.252h-2.252V14.5h2.252V18.252 z M29.508,12.248h-2.252V8.496h2.252V12.248z M29.508,6.245h-2.252V2.493h2.252V6.245z"/></g></svg>